<?xml version="1.0" encoding="UTF-8"?>
<svg version="1.1" xmlns="http://www.w3.org/2000/svg" width="192" height="192">
<path d="M0 0 C20.88701442 17.08652948 34.05317284 40.07617754 37 67 C38.88943583 90.51653754 32.54471976 115.32958919 17.6640625 133.91796875 C15.50309667 136.3481579 13.29028214 138.69199808 11 141 C10.175 141.86625 9.35 142.7325 8.5 143.625 C7.675 144.40875 6.85 145.1925 6 146 C5.42636719 146.58007812 4.85273438 147.16015625 4.26171875 147.7578125 C-0.24819406 152.08936718 -5.05522125 155.49305619 -10.4375 158.625 C-11.01411377 158.97272461 -11.59072754 159.32044922 -12.18481445 159.67871094 C-25.90398825 167.35072318 -39.86342441 169.98262989 -55.42333984 169.72729492 C-58.13147937 169.68740456 -60.83473937 169.70676188 -63.54296875 169.73242188 C-78.07324449 169.7274666 -90.85626646 166.94638398 -103.6875 159.875 C-104.73647461 159.30640259 -104.73647461 159.30640259 -105.80664062 158.72631836 C-126.51730982 147.06122745 -141.69575978 127.44772669 -149 105 C-149.31541748 104.04432129 -149.31541748 104.04432129 -149.63720703 103.06933594 C-156.71188261 80.67459884 -154.54559824 55.21619647 -144.0625 34.25 C-142.76242781 31.7948114 -141.39843777 29.40287125 -140 27 C-139.4946875 26.13117187 -138.989375 25.26234375 -138.46875 24.3671875 C-134.67640753 18.32050812 -129.87840736 13.1811454 -125 8 C-124.45859375 7.38253906 -123.9171875 6.76507812 -123.359375 6.12890625 C-92.53646573 -27.57392131 -34.4051325 -26.764631 0 0 Z " fill="#070707" transform="translate(154,23)"/>
<path d="M0 0 C2.31 0 4.62 0 7 0 C10.24681623 5.54397079 12.83990097 10.95172271 15 17 C15.33 17.33 15.66 17.66 16 18 C16.36351562 16.93072266 16.36351562 16.93072266 16.734375 15.83984375 C18.71365486 10.18367093 20.83341416 5.08915582 24 0 C26.31 0 28.62 0 31 0 C31 8.58 31 17.16 31 26 C29.02 26 27.04 26 25 26 C24.505 19.565 24.505 19.565 24 13 C22.02 16.96 20.04 20.92 18 25 C16.02 25 14.04 25 12 25 C11.65066406 24.15695313 11.30132812 23.31390625 10.94140625 22.4453125 C10.48636719 21.34960938 10.03132813 20.25390625 9.5625 19.125 C9.11003906 18.03445312 8.65757813 16.94390625 8.19140625 15.8203125 C7.50456537 14.19441376 6.78934113 12.57868226 6 11 C5.67 15.62 5.34 20.24 5 25 C3.35 25 1.7 25 0 25 C0 16.75 0 8.5 0 0 Z " fill="#EBEBEB" transform="translate(38,102)"/>
<path d="M0 0 C0 3.63 0 7.26 0 11 C-0.66 11.33 -1.32 11.66 -2 12 C-2 10.02 -2 8.04 -2 6 C-6.29 6.66 -10.58 7.32 -15 8 C-14.97679688 9.13179687 -14.95359375 10.26359375 -14.9296875 11.4296875 C-14.91093099 12.91145175 -14.89273066 14.39322312 -14.875 15.875 C-14.85824219 16.62136719 -14.84148437 17.36773437 -14.82421875 18.13671875 C-14.8066041 20.09194461 -14.89679811 22.04742021 -15 24 C-17 26 -17 26 -19.625 26.125 C-20.40875 26.08375 -21.1925 26.0425 -22 26 C-22.33 25.01 -22.66 24.02 -23 23 C-24.32 23.33 -25.64 23.66 -27 24 C-27 25.32 -27 26.64 -27 28 C-26.38511719 28.25394531 -25.77023438 28.50789063 -25.13671875 28.76953125 C-24.32847656 29.11371094 -23.52023438 29.45789063 -22.6875 29.8125 C-21.88699219 30.14894531 -21.08648437 30.48539063 -20.26171875 30.83203125 C-17.99262076 32.0038107 -16.5955156 33.01814887 -15 35 C-14.4375 37.875 -14.4375 37.875 -15 41 C-17.62944372 44.10139516 -19.26358911 45.62225447 -23.2265625 46.484375 C-27.72927313 46.75544119 -29.4705351 46.43221625 -33.0625 43.5 C-33.701875 42.675 -34.34125 41.85 -35 41 C-32.6875 39.875 -32.6875 39.875 -30 39 C-29.01 39.66 -28.02 40.32 -27 41 C-24.35367713 40.6878236 -24.35367713 40.6878236 -22 40 C-22 39.01 -22 38.02 -22 37 C-22.92232422 36.51080078 -22.92232422 36.51080078 -23.86328125 36.01171875 C-24.67152344 35.57472656 -25.47976562 35.13773438 -26.3125 34.6875 C-27.11300781 34.25824219 -27.91351563 33.82898438 -28.73828125 33.38671875 C-30.88652219 32.0695762 -32.45730295 30.9884764 -34 29 C-33.93247368 25.21852634 -33.8713286 22.90137442 -31.1875 20.125 C-27.53104535 18.24453761 -24.33459361 17.87743245 -20.25 17.9375 C-18.14625 17.9684375 -18.14625 17.9684375 -16 18 C-16 13.05 -16 8.1 -16 3 C-10.28170577 0.71268231 -6.12304507 -0.1423964 0 0 Z " fill="#E8E8E8" transform="translate(134,82)"/>
<path d="M0 0 C1.65 0 3.3 0 5 0 C5.01458252 0.56509277 5.02916504 1.13018555 5.04418945 1.71240234 C5.11856058 4.26730019 5.21525242 6.82087498 5.3125 9.375 C5.33505859 10.26445313 5.35761719 11.15390625 5.38085938 12.0703125 C5.41630859 12.92109375 5.45175781 13.771875 5.48828125 14.6484375 C5.51446533 15.43395996 5.54064941 16.21948242 5.56762695 17.02880859 C5.84889597 19.40040156 5.84889597 19.40040156 9 21 C11.61915122 20.84298574 11.61915122 20.84298574 14 20 C15.11823815 17.76352369 15.19396061 16.35108471 15.31640625 13.8671875 C15.35830078 13.06152344 15.40019531 12.25585938 15.44335938 11.42578125 C15.48267578 10.58402344 15.52199219 9.74226563 15.5625 8.875 C15.60568359 8.02550781 15.64886719 7.17601563 15.69335938 6.30078125 C15.79954236 4.20071777 15.90028497 2.10038052 16 0 C17.98 0 19.96 0 22 0 C22.08115993 3.06303578 22.14057409 6.12390815 22.1875 9.1875 C22.21263672 10.05181641 22.23777344 10.91613281 22.26367188 11.80664062 C22.31981475 16.69107034 22.25449282 20.06651227 19 24 C15.06739208 26.29402129 11.48269075 26.3201922 7 26 C3.13834634 24.88441117 2.28502851 24.42754276 0 21 C-0.22705078 18.73168945 -0.22705078 18.73168945 -0.1953125 16.11328125 C-0.18886719 15.17548828 -0.18242188 14.23769531 -0.17578125 13.27148438 C-0.15902344 12.29501953 -0.14226562 11.31855469 -0.125 10.3125 C-0.11597656 9.32443359 -0.10695313 8.33636719 -0.09765625 7.31835938 C-0.0740843 4.87866235 -0.04118022 2.43945303 0 0 Z " fill="#EDEDED" transform="translate(74,102)"/>
<path d="M0 0 C1.65 0 3.3 0 5 0 C5.04898438 1.19238281 5.09796875 2.38476562 5.1484375 3.61328125 C5.22347604 5.17971068 5.2990234 6.74611579 5.375 8.3125 C5.4059375 9.09818359 5.436875 9.88386719 5.46875 10.69335938 C5.50742188 11.45068359 5.54609375 12.20800781 5.5859375 12.98828125 C5.6173584 13.68477783 5.6487793 14.38127441 5.68115234 15.09887695 C5.92118253 17.32532739 5.92118253 17.32532739 8 20 C10.64 20 13.28 20 16 20 C16.33 13.4 16.66 6.8 17 0 C18.65 0 20.3 0 22 0 C22.14584064 3.22868746 22.23424106 6.45652365 22.3125 9.6875 C22.35439453 10.59951172 22.39628906 11.51152344 22.43945312 12.45117188 C22.52293449 17.042647 22.52481303 19.27643579 19.76171875 23.0859375 C15.81462595 25.82154637 12.71855517 26.14584625 8 26 C4.70893524 25.28455114 3.50500049 24.61451867 1.37890625 22.02734375 C-0.58415226 17.71751274 -0.3233866 13.85990859 -0.1875 9.1875 C-0.17396484 8.30384766 -0.16042969 7.42019531 -0.14648438 6.50976562 C-0.11129217 4.33957977 -0.05748985 2.16970967 0 0 Z " fill="#F5F5F5" transform="translate(83,71)"/>
<path d="M0 0 C2.6875 1.6875 2.6875 1.6875 4.6875 4.6875 C1.6875 6.6875 1.6875 6.6875 -0.4375 6.375 C-2.3125 5.6875 -2.3125 5.6875 -3.3125 4.6875 C-6.72850593 4.27057147 -6.72850593 4.27057147 -10.3125 4.6875 C-12.9250869 6.87870191 -13.25730862 8.25516752 -13.6875 11.625 C-13.25030059 15.19546189 -12.74801204 17.01629325 -10.3125 19.6875 C-6.05968176 20.22876778 -2.95536904 20.01893618 0.6875 17.6875 C1.6775 18.3475 2.6675 19.0075 3.6875 19.6875 C2.6989653 22.38350373 2.02772364 23.49308649 -0.5 24.9375 C-4.83421301 26.09329014 -8.63563224 26.07746925 -13 25.0625 C-16.37847467 23.05367723 -17.60053735 21.23823734 -19.3125 17.6875 C-20.16707855 11.8383846 -19.89037441 6.57726169 -16.3125 1.6875 C-10.90992329 -1.99607503 -6.0552113 -2.39923467 0 0 Z " fill="#EFEFEF" transform="translate(151.3125,102.3125)"/>
<path d="M0 0 C1.38481019 1.02858892 2.76402723 2.0650719 4.125 3.125 C0.3895239 3.125 -0.87550302 2.0104702 -4 0 C-16.443595 -7.39119559 -29.50502247 -10.91798305 -43.875 -11.875 C-44.98875 -11.96910156 -46.1025 -12.06320312 -47.25 -12.16015625 C-65.23854061 -12.98745942 -83.45860074 -6.74297056 -98.19140625 3.37109375 C-100.875 5.125 -100.875 5.125 -102.875 5.125 C-103.13619629 5.71361816 -103.39739258 6.30223633 -103.66650391 6.90869141 C-104.94588668 9.25500188 -106.28928952 10.73954579 -108.2109375 12.5859375 C-108.86320312 13.22273438 -109.51546875 13.85953125 -110.1875 14.515625 C-111.55453965 15.83088285 -112.92172544 17.14598883 -114.2890625 18.4609375 C-118.04369271 22.12687566 -121.15981358 25.62753737 -123.875 30.125 C-124.205 29.465 -124.535 28.805 -124.875 28.125 C-109.78563735 6.80392654 -91.40963651 -8.46938119 -65.05273438 -13.40332031 C-42.49761619 -16.75123736 -18.93311718 -13.16277108 0 0 Z " fill="#333333" transform="translate(144.875,21.875)"/>
<path d="M0 0 C2.6875 -0.4375 2.6875 -0.4375 6 0 C8.10707585 2.07440801 9.65560852 4.37070339 11 7 C11 7.66 11 8.32 11 9 C11.66 9 12.32 9 13 9 C13.28875 8.2575 13.5775 7.515 13.875 6.75 C14.82302644 4.43260203 15.84845911 2.22082885 17 0 C19.31 0 21.62 0 24 0 C20.45668721 7.42587894 20.45668721 7.42587894 17.8125 10.75 C15.10588873 15.60323401 15.17724519 20.52312354 15 26 C13.02 26 11.04 26 9 26 C9.00902344 25.26136719 9.01804687 24.52273437 9.02734375 23.76171875 C8.80377475 16.11177086 7.04370488 11.48721931 2.59375 5.27734375 C1 3 1 3 0 0 Z " fill="#E8E8E8" transform="translate(56,71)"/>
<path d="M0 0 C0 3.63 0 7.26 0 11 C-0.99 11.495 -0.99 11.495 -2 12 C-2 10.02 -2 8.04 -2 6 C-6.29 6.66 -10.58 7.32 -15 8 C-14.97679688 9.13179687 -14.95359375 10.26359375 -14.9296875 11.4296875 C-14.91093099 12.91145175 -14.89273066 14.39322312 -14.875 15.875 C-14.85824219 16.62136719 -14.84148437 17.36773437 -14.82421875 18.13671875 C-14.8066041 20.09194461 -14.89679811 22.04742021 -15 24 C-17 26 -17 26 -19.5 26.3125 C-20.325 26.209375 -21.15 26.10625 -22 26 C-23.9451 23.08235 -24.45276317 21.37462715 -25 18 C-22.03 18 -19.06 18 -16 18 C-16 13.05 -16 8.1 -16 3 C-10.28170577 0.71268231 -6.12304507 -0.1423964 0 0 Z " fill="#C42835" transform="translate(134,82)"/>
<path d="M0 0 C1.32 0 2.64 0 4 0 C4 6.93 4 13.86 4 21 C2.35 21 0.7 21 -1 21 C-1.02888146 17.68751813 -1.04675799 14.37506833 -1.0625 11.0625 C-1.07087891 10.11697266 -1.07925781 9.17144531 -1.08789062 8.19726562 C-1.09111328 7.29814453 -1.09433594 6.39902344 -1.09765625 5.47265625 C-1.10289307 4.64000244 -1.10812988 3.80734863 -1.11352539 2.94946289 C-1 1 -1 1 0 0 Z " fill="#FBFBFB" transform="translate(123,106)"/>
<path d="M0 0 C1.258125 -0.04125 2.51625 -0.0825 3.8125 -0.125 C4.52019531 -0.14820313 5.22789063 -0.17140625 5.95703125 -0.1953125 C8 0 8 0 11 2 C11.33 1.67 11.66 1.34 12 1 C13.66617115 0.95936168 15.33388095 0.957279 17 1 C17 2.98 17 4.96 17 7 C11.39 7 5.78 7 0 7 C-1 2 -1 2 0 0 Z " fill="#4B4B4B" transform="translate(68,56)"/>
<path d="M0 0 C0.33 0 0.66 0 1 0 C1.05389087 1.95803507 1.09274217 3.91648909 1.125 5.875 C1.14820312 6.96554688 1.17140625 8.05609375 1.1953125 9.1796875 C1 12 1 12 -1 14 C-3.5 14.3125 -3.5 14.3125 -6 14 C-7.9451 11.08235 -8.45276317 9.37462715 -9 6 C-6.03 6 -3.06 6 0 6 C0 4.02 0 2.04 0 0 Z " fill="#ABE01D" transform="translate(118,94)"/>
<path d="M0 0 C0.36272727 6.40818182 0.36272727 6.40818182 -1.1875 8.9375 C-3.62103204 10.36405327 -5.22542896 10.35571424 -8 10 C-10 8 -10 8 -10.125 5.5625 C-9 3 -9 3 -7.1796875 2.0078125 C-1.84464286 0 -1.84464286 0 0 0 Z " fill="#0B58D4" transform="translate(134,93)"/>
<path d="M0 0 C1.32 0.33 2.64 0.66 4 1 C3.5968457 1.39268066 3.19369141 1.78536133 2.77832031 2.18994141 C0.93014113 3.9961889 -0.90993354 5.81049002 -2.75 7.625 C-3.38421875 8.24246094 -4.0184375 8.85992187 -4.671875 9.49609375 C-8.31945419 13.10567732 -11.32834721 16.61471133 -14 21 C-14.33 20.34 -14.66 19.68 -15 19 C-10.30423743 12.36494847 -5.49625431 5.99435236 0 0 Z " fill="#272727" transform="translate(35,31)"/>
<path d="M0 0 C0.33 1.32 0.66 2.64 1 4 C-1.90600261 5.25664978 -3.79604584 6 -7 6 C-7.33 7.32 -7.66 8.64 -8 10 C-8 7.03 -8 4.06 -8 1 C-6.865625 1.020625 -5.73125 1.04125 -4.5625 1.0625 C-1.18424326 1.41577477 -1.18424326 1.41577477 0 0 Z " fill="#F35419" transform="translate(126,84)"/>
<path d="M0 0 C4.62 0 9.24 0 14 0 C14 0.33 14 0.66 14 1 C12.35 1 10.7 1 9 1 C9 6.94 9 12.88 9 19 C8.67 19 8.34 19 8 19 C7.67 14.05 7.34 9.1 7 4 C6.01 4.66 5.02 5.32 4 6 C4.33 4.68 4.66 3.36 5 2 C3.35 1.67 1.7 1.34 0 1 C0 0.67 0 0.34 0 0 Z " fill="#414141" transform="translate(74,70)"/>
<path d="M0 0 C2.66666667 0 5.33333333 0 8 0 C8 1.98 8 3.96 8 6 C5.36 6 2.72 6 0 6 C0 4.02 0 2.04 0 0 Z " fill="#818181" transform="translate(77,57)"/>
<path d="M0 0 C2.8290723 2.8290723 3.37611108 3.38144425 4 7 C3.34 7 2.68 7 2 7 C2 9.64 2 12.28 2 15 C1.34 15 0.68 15 0 15 C0 10.05 0 5.1 0 0 Z " fill="#4B4B4B" transform="translate(43,112)"/>
<path d="M0 0 C0.33 0 0.66 0 1 0 C1 4.62 1 9.24 1 14 C0.67 14 0.34 14 0 14 C-0.33 11.69 -0.66 9.38 -1 7 C-1.66 7 -2.32 7 -3 7 C-1.125 1.125 -1.125 1.125 0 0 Z " fill="#242424" transform="translate(62,114)"/>
<path d="M0 0 C1.32 0 2.64 0 4 0 C4.33 1.98 4.66 3.96 5 6 C3.35 6 1.7 6 0 6 C0 4.02 0 2.04 0 0 Z " fill="#7F7F7F" transform="translate(71,57)"/>
<path d="M0 0 C1.65 0 3.3 0 5 0 C4.67 2.31 4.34 4.62 4 7 C3.34 7 2.68 7 2 7 C1.34 4.69 0.68 2.38 0 0 Z " fill="#DFCA40" transform="translate(109,100)"/>
<path d="M0 0 C1.2065625 0.0309375 1.2065625 0.0309375 2.4375 0.0625 C2.1075 1.7125 1.7775 3.3625 1.4375 5.0625 C0.4475 4.7325 -0.5425 4.4025 -1.5625 4.0625 C-1.5625 3.4025 -1.5625 2.7425 -1.5625 2.0625 C-2.2225 1.7325 -2.8825 1.4025 -3.5625 1.0625 C-2.5625 0.0625 -2.5625 0.0625 0 0 Z " fill="#565656" transform="translate(82.5625,56.9375)"/>
<path d="M0 0 C0.99 0.33 1.98 0.66 3 1 C2.38125 1.5775 1.7625 2.155 1.125 2.75 C-0.81347053 4.80249821 -1.90014249 6.43366582 -3 9 C-2.25 2.25 -2.25 2.25 0 0 Z " fill="#BABBBB" transform="translate(103,102)"/>
</svg>
